<?xml version="1.0" encoding="UTF-8"?>
<svg width="115px" height="68px" viewBox="0 0 115 68" version="1.1" xmlns="http://www.w3.org/2000/svg" xmlns:xlink="http://www.w3.org/1999/xlink">
    <!-- Generator: Sketch 61.2 (89653) - https://sketch.com -->
    <title>Logo</title>
    <desc>Created with Sketch.</desc>
    <g id="Symbols" stroke="none" stroke-width="1" fill="none" fill-rule="evenodd">
        <g id="Footer" transform="translate(-225.000000, -201.000000)" fill-rule="nonzero">
            <g id="Content">
                <g transform="translate(225.000000, 202.000000)">
                    <g id="Logo">
                        <path d="M31.9561043,66 C36.170096,66 40.2231367,65.240866 44.1152263,63.7225981 C48.007316,62.2043302 51.4165524,60.0162382 54.3429355,57.1583221 C57.2693187,54.300406 59.6104252,50.8470907 61.3662551,46.7983762 C63.122085,42.7496617 64,38.165088 64,33.0446549 C64,27.9242219 63.122085,23.3247632 61.3662551,19.2462788 C59.6104252,15.1677943 57.2693187,11.699594 54.3429355,8.84167794 C51.4165524,5.98376184 48.007316,3.79566982 44.1152263,2.27740189 C40.2231367,0.759133965 36.170096,0 31.9561043,0 C27.7421125,0 23.7037037,0.759133965 19.8408779,2.27740189 C15.9780521,3.79566982 12.5834476,5.98376184 9.65706447,8.84167794 C6.7306813,11.699594 4.38957476,15.1677943 2.63374486,19.2462788 C0.877914952,23.3247632 0,27.9242219 0,33.0446549 C0,38.165088 0.877914952,42.7496617 2.63374486,46.7983762 C4.38957476,50.8470907 6.7306813,54.300406 9.65706447,57.1583221 C12.5834476,60.0162382 15.9780521,62.2043302 19.8408779,63.7225981 C23.7037037,65.240866 27.7421125,66 31.9561043,66 Z M31.9561043,54.0324763 C29.5564701,54.0324763 27.2007316,53.6008119 24.8888889,52.7374831 C22.5770462,51.8741543 20.4993141,50.579161 18.6556927,48.8525034 C16.8120713,47.1258457 15.3342478,44.9377537 14.2222222,42.2882273 C13.1101966,39.6387009 12.5541838,36.5277402 12.5541838,32.9553451 C12.5541838,29.3829499 13.1101966,26.2719892 14.2222222,23.6224628 C15.3342478,20.9729364 16.8120713,18.7848444 18.6556927,17.0581867 C20.4993141,15.3315291 22.5770462,14.0365359 24.8888889,13.173207 C27.2007316,12.3098782 29.5564701,11.8782138 31.9561043,11.8782138 C34.3557385,11.8782138 36.7261088,12.3098782 39.0672154,13.173207 C41.4083219,14.0365359 43.5006859,15.3315291 45.3443073,17.0581867 C47.1879287,18.7848444 48.6657522,20.9729364 49.7777778,23.6224628 C50.8898034,26.2719892 51.4458162,29.3829499 51.4458162,32.9553451 C51.4458162,36.5277402 50.8898034,39.6387009 49.7777778,42.2882273 C48.6657522,44.9377537 47.1879287,47.1258457 45.3443073,48.8525034 C43.5006859,50.579161 41.4083219,51.8741543 39.0672154,52.7374831 C36.7261088,53.6008119 34.3557385,54.0324763 31.9561043,54.0324763 Z" id="Oliver" fill="#FFFFFF"></path>
                        <path d="M85.0448625,66 C89.4587554,66 93.3282682,65.3301759 96.6534009,63.9905277 C99.9785335,62.6508796 102.832851,60.9391069 105.216353,58.8552097 C107.599855,56.7713126 109.512542,54.4641407 110.954414,51.9336942 C112.396286,49.4032476 113.411481,46.917456 114,44.4763194 L114,44.4763194 L102.612156,40.9932341 C102.200193,42.4817321 101.552822,43.985115 100.670043,45.5033829 C99.7872648,47.0216509 98.6396527,48.405954 97.2272069,49.6562923 C95.8147612,50.9066306 94.093343,51.9336942 92.0629522,52.7374831 C90.0325615,53.541272 87.6931983,53.9431664 85.0448625,53.9431664 C82.5142306,53.9431664 80.0865895,53.4817321 77.7619392,52.5588633 C75.437289,51.6359946 73.3774723,50.2963464 71.5824891,48.5399188 C69.787506,46.7834912 68.3456343,44.6102842 67.2568741,42.0202977 C66.1681138,39.4303112 65.6237337,36.4384303 65.6237337,33.0446549 C65.6237337,29.4722598 66.1828268,26.3464141 67.301013,23.6671177 C68.4191992,20.9878214 69.8904969,18.7848444 71.7149059,17.0581867 C73.539315,15.3315291 75.5991317,14.0365359 77.894356,13.173207 C80.1895803,12.3098782 82.5142306,11.8782138 84.8683068,11.8782138 C87.5754945,11.8782138 89.9295707,12.2652233 91.9305355,13.0392422 C93.9315002,13.8132612 95.6234925,14.7956698 97.0065123,15.9864682 C98.3895321,17.1772666 99.4930053,18.5466847 100.316932,20.0947226 C101.140859,21.6427605 101.729378,23.1610284 102.082489,24.6495264 L102.082489,24.6495264 L113.558611,20.9878214 C112.91124,18.4276049 111.866618,15.8971583 110.424747,13.3964817 C108.982875,10.8958051 107.099614,8.64817321 104.774964,6.65358593 C102.450314,4.65899865 99.6254221,3.05142084 96.3002894,1.8308525 C92.9751568,0.610284168 89.1644959,0 84.8683068,0 C80.6898215,0 76.673179,0.774018945 72.8183792,2.32205683 C68.9635794,3.87009472 65.5648818,6.07307172 62.6222865,8.93098782 C59.6796913,11.7889039 57.340328,15.2571042 55.6041968,19.3355886 C53.8680656,23.4140731 53,27.9837618 53,33.0446549 C53,38.105548 53.8533526,42.6603518 55.5600579,46.7090663 C57.2667631,50.7577808 59.5767004,54.2110961 62.4898698,57.0690122 C65.4030391,59.9269283 68.8017366,62.1299053 72.6859624,63.6779432 C76.5701881,65.2259811 80.6898215,66 85.0448625,66 Z" id="Cookson" stroke="#4BB5C2" fill="#4BB5C2" opacity="0.761765253"></path>
                    </g>
                </g>
            </g>
        </g>
    </g>
</svg>