<?xml version="1.0" encoding="UTF-8"?>
<svg width="303px" height="30px" viewBox="0 0 303 30" version="1.1" xmlns="http://www.w3.org/2000/svg" xmlns:xlink="http://www.w3.org/1999/xlink">
    <!-- Generator: Sketch 61.2 (89653) - https://sketch.com -->
    <title>Logo</title>
    <desc>Created with Sketch.</desc>
    <g id="Symbols" stroke="none" stroke-width="1" fill="none" fill-rule="evenodd">
        <g id="Header/Main" transform="translate(0.000000, -1.000000)" fill-rule="nonzero">
            <g id="Header" transform="translate(0.000000, 2.000000)">
                <g id="Logo">
                    <path d="M13.5830642,28 C15.3742375,28 17.096998,27.6830892 18.7513455,27.0492676 C20.4056931,26.4154461 21.8548021,25.5019973 23.0986724,24.3089214 C24.3425428,23.1158455 25.337639,21.6742122 26.0839612,19.9840213 C26.8302835,18.2938304 27.2034446,16.3799379 27.2034446,14.2423435 C27.2034446,12.1047492 26.8302835,10.1846427 26.0839612,8.48202397 C25.337639,6.77940524 24.3425428,5.33155792 23.0986724,4.13848202 C21.8548021,2.94540613 20.4056931,2.03195739 18.7513455,1.39813582 C17.096998,0.764314248 15.3742375,0.447403462 13.5830642,0.447403462 C11.7918909,0.447403462 10.0753498,0.764314248 8.43344098,1.39813582 C6.79153211,2.03195739 5.34864251,2.94540613 4.10477216,4.13848202 C2.86090181,5.33155792 1.86580553,6.77940524 1.11948332,8.48202397 C0.373161105,10.1846427 0,12.1047492 0,14.2423435 C0,16.3799379 0.373161105,18.2938304 1.11948332,19.9840213 C1.86580553,21.6742122 2.86090181,23.1158455 4.10477216,24.3089214 C5.34864251,25.5019973 6.79153211,26.4154461 8.43344098,27.0492676 C10.0753498,27.6830892 11.7918909,28 13.5830642,28 Z M13.5830642,23.0039947 C12.5630905,23.0039947 11.5617749,22.8237905 10.5791173,22.4633822 C9.59645975,22.1029738 8.7133118,21.5623613 7.92967348,20.8415446 C7.14603516,20.1207279 6.51788064,19.2072792 6.0452099,18.1011984 C5.57253917,16.9951176 5.3362038,15.6964048 5.3362038,14.2050599 C5.3362038,12.713715 5.57253917,11.4150022 6.0452099,10.3089214 C6.51788064,9.20284066 7.14603516,8.28939192 7.92967348,7.56857523 C8.7133118,6.84775854 9.59645975,6.30714603 10.5791173,5.94673768 C11.5617749,5.58632934 12.5630905,5.40612517 13.5830642,5.40612517 C14.6030379,5.40612517 15.6105729,5.58632934 16.6056692,5.94673768 C17.6007655,6.30714603 18.4901328,6.84775854 19.2737711,7.56857523 C20.0574094,8.28939192 20.6855639,9.20284066 21.1582347,10.3089214 C21.6309054,11.4150022 21.8672408,12.713715 21.8672408,14.2050599 C21.8672408,15.6964048 21.6309054,16.9951176 21.1582347,18.1011984 C20.6855639,19.2072792 20.0574094,20.1207279 19.2737711,20.8415446 C18.4901328,21.5623613 17.6007655,22.1029738 16.6056692,22.4633822 C15.6105729,22.8237905 14.6030379,23.0039947 13.5830642,23.0039947 Z" id="Oliver" fill="#FFFFFF"></path>
                    <path d="M35.5548917,28 C37.4219567,28 39.0587503,27.7158322 40.4652726,27.1474966 C41.8717949,26.579161 43.0791636,25.8529544 44.0873786,24.9688769 C45.0955937,24.0847993 45.9046552,23.1059991 46.5145631,22.0324763 C47.124471,20.9589535 47.5538959,19.9043753 47.8028379,18.8687415 L47.8028379,18.8687415 L42.9858103,17.391069 C42.8115509,18.022553 42.5377147,18.6603518 42.1643017,19.3044655 C41.7908887,19.9485792 41.3054518,20.5358593 40.707991,21.0663058 C40.1105302,21.5967524 39.3823749,22.0324763 38.523525,22.3734777 C37.6646751,22.714479 36.6751307,22.8849797 35.5548917,22.8849797 C34.4844411,22.8849797 33.4575554,22.6892197 32.4742345,22.2976996 C31.4909136,21.9061795 30.6196166,21.3378439 29.8603435,20.5926928 C29.1010705,19.8475417 28.4911626,18.9255751 28.0306199,17.826793 C27.5700772,16.7280108 27.3398058,15.458728 27.3398058,14.0189445 C27.3398058,12.5033829 27.5763007,11.1772666 28.0492905,10.0405954 C28.5222803,8.90392422 29.1446353,7.96932792 29.9163555,7.2368065 C30.6880757,6.50428507 31.5593727,5.954894 32.5302465,5.58863329 C33.5011202,5.22237258 34.4844411,5.03924222 35.4802091,5.03924222 C36.6253423,5.03924222 37.6211103,5.20342806 38.4675131,5.53179973 C39.3139159,5.8601714 40.0296241,6.27695083 40.6146378,6.78213802 C41.1996515,7.28732521 41.6664177,7.86829048 42.0149365,8.52503383 C42.3634553,9.18177718 42.6123973,9.82589084 42.7617625,10.4573748 L42.7617625,10.4573748 L47.6161314,8.90392422 C47.3422952,7.81777176 46.9004232,6.74424899 46.2905153,5.68335589 C45.6806074,4.62246279 44.883993,3.66892197 43.9006721,2.82273342 C42.9173513,1.97654488 41.7224297,1.29454217 40.3159074,0.776725304 C38.9093851,0.258908435 37.2974857,0 35.4802091,0 C33.7127209,0 32.0136918,0.328371673 30.3831217,0.98511502 C28.7525517,1.64185837 27.3149116,2.57645467 26.0702016,3.78890392 C24.8254917,5.00135318 23.8359472,6.47271087 23.1015683,8.202977 C22.3671894,9.93324312 22,11.871899 22,14.0189445 C22,16.1659901 22.3609659,18.0983311 23.0828977,19.8159675 C23.8048295,21.533604 24.7819268,22.9986468 26.0141897,24.2110961 C27.2464526,25.4235453 28.6840926,26.3581416 30.3271098,27.014885 C31.970127,27.6716283 33.7127209,28 35.5548917,28 Z" id="Cookson" stroke="#4BB5C2" fill="#4BB5C2" opacity="0.761765253"></path>
                    <path d="M73.7045898,24.3051758 C74.9659831,24.3051758 76.1378581,24.0732422 77.2202148,23.609375 C78.3188477,23.1373698 79.2587891,22.5066732 80.0400391,21.7172852 C80.8212891,20.9278971 81.4357096,19.9716797 81.8833008,18.8486328 C82.3308919,17.7255859 82.5546875,16.5252279 82.5546875,15.2475586 C82.5546875,13.9617513 82.3308919,12.7613932 81.8833008,11.6464844 C81.4438477,10.5397135 80.8294271,9.5875651 80.0400391,8.79003906 C79.242513,7.984375 78.3025716,7.34960938 77.2202148,6.88574219 C76.1541341,6.43001302 74.9822591,6.20214844 73.7045898,6.20214844 C72.4025065,6.20214844 71.2224935,6.43001302 70.1645508,6.88574219 C69.082194,7.34960938 68.1463216,7.984375 67.3569336,8.79003906 C66.5675456,9.5875651 65.953125,10.5397135 65.5136719,11.6464844 C65.0742188,12.7451172 64.8544922,13.9454753 64.8544922,15.2475586 C64.8544922,16.5496419 65.0742188,17.75 65.5136719,18.8486328 C65.961263,19.9716797 66.5756836,20.9278971 67.3569336,21.7172852 C68.1300456,22.5066732 69.065918,23.1373698 70.1645508,23.609375 C71.2387695,24.0732422 72.4187826,24.3051758 73.7045898,24.3051758 Z M73.7045898,21.4487305 C72.8338216,21.4487305 72.0322266,21.281901 71.2998047,20.9482422 C70.5836589,20.6227214 69.9773763,20.1791992 69.480957,19.6176758 C68.9845378,19.0561523 68.5939128,18.4010417 68.309082,17.6523438 C68.0323893,16.9199219 67.894043,16.1183268 67.894043,15.2475586 C67.894043,14.3849284 68.0323893,13.5874023 68.309082,12.8549805 C68.5939128,12.1062826 68.9845378,11.4511719 69.480957,10.8896484 C69.9936523,10.311849 70.5999349,9.86425781 71.2998047,9.546875 C72.0322266,9.21321615 72.8338216,9.04638672 73.7045898,9.04638672 C74.5672201,9.04638672 75.3647461,9.21321615 76.097168,9.546875 C76.8133138,9.87239583 77.4236654,10.319987 77.9282227,10.8896484 C78.4083659,11.4348958 78.7949219,12.0900065 79.0878906,12.8549805 C79.3645833,13.5874023 79.5029297,14.3849284 79.5029297,15.2475586 C79.5029297,16.1183268 79.3645833,16.9199219 79.0878906,17.6523438 C78.7949219,18.4173177 78.4083659,19.0724284 77.9282227,19.6176758 C77.4318034,20.1710612 76.8214518,20.6145833 76.097168,20.9482422 C75.3647461,21.281901 74.5672201,21.4487305 73.7045898,21.4487305 Z M97.7016602,24 L97.7016602,21.1557617 L90.2431641,21.1557617 L90.2431641,6.49511719 L87.2524414,6.49511719 L87.2524414,24 L97.7016602,24 Z M105.097168,24 L105.097168,6.49511719 L102.094238,6.49511719 L102.094238,24 L105.097168,24 Z M117.167969,24.5981445 L124.992676,6.49511719 L121.867676,6.49511719 L117.265625,17.7255859 L112.614746,6.49511719 L109.343262,6.49511719 L117.167969,24.5981445 Z M139.63916,24 L139.63916,21.1557617 L131.887695,21.1557617 L131.887695,16.4560547 L138.894531,16.4560547 L138.894531,13.5996094 L131.887695,13.5996094 L131.887695,9.3515625 L139.492676,9.3515625 L139.492676,6.49511719 L128.896973,6.49511719 L128.896973,24 L139.63916,24 Z M147.535156,24 L147.535156,17.3959961 L148.914551,17.3959961 L153.064941,24 L156.568359,24 L152.186035,17.2006836 C153.43929,16.8833008 154.403646,16.2566732 155.079102,15.3208008 C155.754557,14.3849284 156.092285,13.2781576 156.092285,12.0004883 C156.092285,11.1704102 155.953939,10.4257812 155.677246,9.76660156 C155.384277,9.06673177 154.993652,8.48486328 154.505371,8.02099609 C154.000814,7.54085286 153.386393,7.16650391 152.662109,6.89794922 C151.937826,6.62939453 151.148438,6.49511719 150.293945,6.49511719 L150.293945,6.49511719 L144.544434,6.49511719 L144.544434,24 L147.535156,24 Z M149.915527,14.5517578 L147.535156,14.5517578 L147.535156,9.3515625 L149.915527,9.3515625 C150.867676,9.3515625 151.628581,9.56722005 152.198242,9.99853516 C152.759766,10.4298503 153.040527,11.0808919 153.040527,11.9516602 C153.040527,12.8224284 152.759766,13.4734701 152.198242,13.9047852 C151.628581,14.3361003 150.867676,14.5517578 149.915527,14.5517578 L149.915527,14.5517578 Z M178.32959,24.3051758 C179.094564,24.3051758 179.818848,24.2197266 180.502441,24.0488281 C181.202311,23.8697917 181.82487,23.6459961 182.370117,23.3774414 C182.939779,23.0926107 183.448405,22.7752279 183.895996,22.425293 C184.359863,22.059082 184.746419,21.6928711 185.055664,21.3266602 L185.055664,21.3266602 L183.053711,19.3491211 C182.589844,19.8943685 181.951009,20.3907878 181.137207,20.8383789 C180.331543,21.277832 179.403809,21.4975586 178.354004,21.4975586 C177.499512,21.4975586 176.706055,21.3307292 175.973633,20.9970703 C175.257487,20.6715495 174.643066,20.2198893 174.130371,19.6420898 C173.6014,19.0480143 173.198568,18.3847656 172.921875,17.6523438 C172.637044,16.8955078 172.494629,16.0939128 172.494629,15.2475586 C172.494629,14.4093424 172.637044,13.6118164 172.921875,12.8549805 C173.206706,12.1062826 173.605469,11.4430339 174.118164,10.8652344 C174.655273,10.2711589 175.265625,9.81542969 175.949219,9.49804688 C176.681641,9.16438802 177.475098,8.99755859 178.32959,8.99755859 C179.35498,8.99755859 180.250163,9.20100911 181.015137,9.60791016 C181.747559,9.99853516 182.333496,10.4379883 182.772949,10.9262695 L182.772949,10.9262695 L184.799316,8.94873047 C184.5389,8.65576172 184.188965,8.3343099 183.749512,7.984375 C183.383301,7.69140625 182.899089,7.3984375 182.296875,7.10546875 C181.735352,6.82877604 181.129069,6.60904948 180.478027,6.44628906 C179.835124,6.28352865 179.11084,6.20214844 178.305176,6.20214844 C177.035645,6.20214844 175.867839,6.43001302 174.801758,6.88574219 C173.711263,7.34960938 172.771322,7.984375 171.981934,8.79003906 C171.200684,9.57942708 170.582194,10.5315755 170.126465,11.6464844 C169.678874,12.7369792 169.455078,13.9373372 169.455078,15.2475586 C169.455078,16.5577799 169.678874,17.758138 170.126465,18.8486328 C170.590332,19.9716797 171.208822,20.9278971 171.981934,21.7172852 C172.763184,22.5066732 173.703125,23.1373698 174.801758,23.609375 C175.892253,24.0732422 177.068197,24.3051758 178.32959,24.3051758 Z M197.199707,24.3051758 C198.4611,24.3051758 199.632975,24.0732422 200.715332,23.609375 C201.813965,23.1373698 202.753906,22.5066732 203.535156,21.7172852 C204.316406,20.9278971 204.930827,19.9716797 205.378418,18.8486328 C205.826009,17.7255859 206.049805,16.5252279 206.049805,15.2475586 C206.049805,13.9617513 205.826009,12.7613932 205.378418,11.6464844 C204.938965,10.5397135 204.324544,9.5875651 203.535156,8.79003906 C202.73763,7.984375 201.797689,7.34960938 200.715332,6.88574219 C199.649251,6.43001302 198.477376,6.20214844 197.199707,6.20214844 C195.897624,6.20214844 194.717611,6.43001302 193.659668,6.88574219 C192.577311,7.34960938 191.641439,7.984375 190.852051,8.79003906 C190.062663,9.5875651 189.448242,10.5397135 189.008789,11.6464844 C188.569336,12.7451172 188.349609,13.9454753 188.349609,15.2475586 C188.349609,16.5496419 188.569336,17.75 189.008789,18.8486328 C189.45638,19.9716797 190.070801,20.9278971 190.852051,21.7172852 C191.625163,22.5066732 192.561035,23.1373698 193.659668,23.609375 C194.733887,24.0732422 195.9139,24.3051758 197.199707,24.3051758 Z M197.199707,21.4487305 C196.328939,21.4487305 195.527344,21.281901 194.794922,20.9482422 C194.078776,20.6227214 193.472493,20.1791992 192.976074,19.6176758 C192.479655,19.0561523 192.08903,18.4010417 191.804199,17.6523438 C191.527507,16.9199219 191.38916,16.1183268 191.38916,15.2475586 C191.38916,14.3849284 191.527507,13.5874023 191.804199,12.8549805 C192.08903,12.1062826 192.479655,11.4511719 192.976074,10.8896484 C193.48877,10.311849 194.095052,9.86425781 194.794922,9.546875 C195.527344,9.21321615 196.328939,9.04638672 197.199707,9.04638672 C198.062337,9.04638672 198.859863,9.21321615 199.592285,9.546875 C200.308431,9.87239583 200.918783,10.319987 201.42334,10.8896484 C201.903483,11.4348958 202.290039,12.0900065 202.583008,12.8549805 C202.859701,13.5874023 202.998047,14.3849284 202.998047,15.2475586 C202.998047,16.1183268 202.859701,16.9199219 202.583008,17.6523438 C202.290039,18.4173177 201.903483,19.0724284 201.42334,19.6176758 C200.926921,20.1710612 200.316569,20.6145833 199.592285,20.9482422 C198.859863,21.281901 198.062337,21.4487305 197.199707,21.4487305 Z M218.59668,24.3051758 C219.858073,24.3051758 221.029948,24.0732422 222.112305,23.609375 C223.210938,23.1373698 224.150879,22.5066732 224.932129,21.7172852 C225.713379,20.9278971 226.327799,19.9716797 226.775391,18.8486328 C227.222982,17.7255859 227.446777,16.5252279 227.446777,15.2475586 C227.446777,13.9617513 227.222982,12.7613932 226.775391,11.6464844 C226.335938,10.5397135 225.721517,9.5875651 224.932129,8.79003906 C224.134603,7.984375 223.194661,7.34960938 222.112305,6.88574219 C221.046224,6.43001302 219.874349,6.20214844 218.59668,6.20214844 C217.294596,6.20214844 216.114583,6.43001302 215.056641,6.88574219 C213.974284,7.34960938 213.038411,7.984375 212.249023,8.79003906 C211.459635,9.5875651 210.845215,10.5397135 210.405762,11.6464844 C209.966309,12.7451172 209.746582,13.9454753 209.746582,15.2475586 C209.746582,16.5496419 209.966309,17.75 210.405762,18.8486328 C210.853353,19.9716797 211.467773,20.9278971 212.249023,21.7172852 C213.022135,22.5066732 213.958008,23.1373698 215.056641,23.609375 C216.130859,24.0732422 217.310872,24.3051758 218.59668,24.3051758 Z M218.59668,21.4487305 C217.725911,21.4487305 216.924316,21.281901 216.191895,20.9482422 C215.475749,20.6227214 214.869466,20.1791992 214.373047,19.6176758 C213.876628,19.0561523 213.486003,18.4010417 213.201172,17.6523438 C212.924479,16.9199219 212.786133,16.1183268 212.786133,15.2475586 C212.786133,14.3849284 212.924479,13.5874023 213.201172,12.8549805 C213.486003,12.1062826 213.876628,11.4511719 214.373047,10.8896484 C214.885742,10.311849 215.492025,9.86425781 216.191895,9.546875 C216.924316,9.21321615 217.725911,9.04638672 218.59668,9.04638672 C219.45931,9.04638672 220.256836,9.21321615 220.989258,9.546875 C221.705404,9.87239583 222.315755,10.319987 222.820312,10.8896484 C223.300456,11.4348958 223.687012,12.0900065 223.97998,12.8549805 C224.256673,13.5874023 224.39502,14.3849284 224.39502,15.2475586 C224.39502,16.1183268 224.256673,16.9199219 223.97998,17.6523438 C223.687012,18.4173177 223.300456,19.0724284 222.820312,19.6176758 C222.323893,20.1710612 221.713542,20.6145833 220.989258,20.9482422 C220.256836,21.281901 219.45931,21.4487305 218.59668,21.4487305 Z M235.135254,24 L235.135254,16.1020508 L242.02002,24 L245.987305,24 L238.284668,15.1010742 L245.14502,6.49511719 L241.385254,6.49511719 L235.135254,14.3442383 L235.135254,6.49511719 L232.144531,6.49511719 L232.144531,24 L235.135254,24 Z M255.665527,24.3051758 C256.446777,24.3051758 257.203613,24.1993815 257.936035,23.987793 C258.644043,23.7843424 259.278809,23.4710286 259.840332,23.0478516 C260.377441,22.6409505 260.812826,22.1160482 261.146484,21.4731445 C261.472005,20.8465169 261.634766,20.1140951 261.634766,19.2758789 C261.634766,18.519043 261.500488,17.8680013 261.231934,17.3227539 C260.963379,16.7693685 260.605306,16.2932943 260.157715,15.8945312 C259.718262,15.5039062 259.197428,15.1580404 258.595215,14.8569336 C258.025553,14.5721029 257.407064,14.3035482 256.739746,14.0512695 L256.739746,14.0512695 L255.360352,13.5263672 C254.888346,13.3473307 254.485514,13.1601562 254.151855,12.9648438 C253.801921,12.7613932 253.513021,12.5131836 253.285156,12.2202148 C253.073568,11.9516602 252.967773,11.6098633 252.967773,11.1948242 C252.967773,10.5600586 253.220052,10.0432943 253.724609,9.64453125 C254.229167,9.24576823 254.859863,9.04638672 255.616699,9.04638672 C256.007324,9.04638672 256.381673,9.10742188 256.739746,9.22949219 C257.138509,9.36783854 257.472168,9.51432292 257.740723,9.66894531 C258.033691,9.83984375 258.314453,10.0514323 258.583008,10.3037109 C258.884115,10.5885417 259.111979,10.8286133 259.266602,11.0239258 L259.266602,11.0239258 L261.341797,8.97314453 C261.048828,8.62320964 260.727376,8.2976888 260.377441,7.99658203 C260.003092,7.6710612 259.571777,7.37402344 259.083496,7.10546875 C258.587077,6.82877604 258.054036,6.60904948 257.484375,6.44628906 C256.922852,6.28352865 256.292155,6.20214844 255.592285,6.20214844 C254.729655,6.20214844 253.944336,6.3445638 253.236328,6.62939453 C252.544596,6.90608724 251.950521,7.2804362 251.454102,7.75244141 C250.949544,8.23258464 250.567057,8.77376302 250.306641,9.37597656 C250.046224,9.9781901 249.916016,10.6210938 249.916016,11.3046875 C249.916016,12.0859375 250.082845,12.7613932 250.416504,13.3310547 C250.742025,13.8844401 251.169271,14.3767904 251.698242,14.8081055 C252.186523,15.2068685 252.77653,15.5690104 253.468262,15.8945312 C254.127441,16.203776 254.766276,16.4723307 255.384766,16.7001953 C256.043945,16.9443359 256.47526,17.1070964 256.678711,17.1884766 C257.061198,17.343099 257.398926,17.5221354 257.691895,17.7255859 C257.960449,17.9127604 258.180176,18.136556 258.351074,18.3969727 C258.505697,18.6329753 258.583008,18.9422201 258.583008,19.324707 C258.583008,19.707194 258.497559,20.0367839 258.32666,20.3134766 C258.172038,20.5738932 257.944173,20.7936198 257.643066,20.9726562 C257.366374,21.1435547 257.05306,21.265625 256.703125,21.3388672 C256.361328,21.4121094 256.015462,21.4487305 255.665527,21.4487305 C255.112142,21.4487305 254.62793,21.3714193 254.212891,21.2167969 C253.822266,21.0703125 253.431641,20.862793 253.041016,20.5942383 C252.715495,20.3745117 252.402181,20.097819 252.101074,19.7641602 C251.840658,19.4793294 251.604655,19.1660156 251.393066,18.8242188 L251.393066,18.8242188 L249.134766,20.7285156 C249.435872,21.1842448 249.777669,21.6155599 250.160156,22.0224609 C250.575195,22.4619141 251.047201,22.844401 251.576172,23.1699219 C252.137695,23.5117188 252.743978,23.7843424 253.39502,23.987793 C254.078613,24.1993815 254.835449,24.3051758 255.665527,24.3051758 Z M274.560059,24.3051758 C275.821452,24.3051758 276.993327,24.0732422 278.075684,23.609375 C279.174316,23.1373698 280.114258,22.5066732 280.895508,21.7172852 C281.676758,20.9278971 282.291178,19.9716797 282.73877,18.8486328 C283.186361,17.7255859 283.410156,16.5252279 283.410156,15.2475586 C283.410156,13.9617513 283.186361,12.7613932 282.73877,11.6464844 C282.299316,10.5397135 281.684896,9.5875651 280.895508,8.79003906 C280.097982,7.984375 279.15804,7.34960938 278.075684,6.88574219 C277.009603,6.43001302 275.837728,6.20214844 274.560059,6.20214844 C273.257975,6.20214844 272.077962,6.43001302 271.02002,6.88574219 C269.937663,7.34960938 269.00179,7.984375 268.212402,8.79003906 C267.423014,9.5875651 266.808594,10.5397135 266.369141,11.6464844 C265.929688,12.7451172 265.709961,13.9454753 265.709961,15.2475586 C265.709961,16.5496419 265.929688,17.75 266.369141,18.8486328 C266.816732,19.9716797 267.431152,20.9278971 268.212402,21.7172852 C268.985514,22.5066732 269.921387,23.1373698 271.02002,23.609375 C272.094238,24.0732422 273.274251,24.3051758 274.560059,24.3051758 Z M274.560059,21.4487305 C273.68929,21.4487305 272.887695,21.281901 272.155273,20.9482422 C271.439128,20.6227214 270.832845,20.1791992 270.336426,19.6176758 C269.840007,19.0561523 269.449382,18.4010417 269.164551,17.6523438 C268.887858,16.9199219 268.749512,16.1183268 268.749512,15.2475586 C268.749512,14.3849284 268.887858,13.5874023 269.164551,12.8549805 C269.449382,12.1062826 269.840007,11.4511719 270.336426,10.8896484 C270.849121,10.311849 271.455404,9.86425781 272.155273,9.546875 C272.887695,9.21321615 273.68929,9.04638672 274.560059,9.04638672 C275.422689,9.04638672 276.220215,9.21321615 276.952637,9.546875 C277.668783,9.87239583 278.279134,10.319987 278.783691,10.8896484 C279.263835,11.4348958 279.650391,12.0900065 279.943359,12.8549805 C280.220052,13.5874023 280.358398,14.3849284 280.358398,15.2475586 C280.358398,16.1183268 280.220052,16.9199219 279.943359,17.6523438 C279.650391,18.4173177 279.263835,19.0724284 278.783691,19.6176758 C278.287272,20.1710612 277.676921,20.6145833 276.952637,20.9482422 C276.220215,21.281901 275.422689,21.4487305 274.560059,21.4487305 Z M291.098633,24 L291.098633,11.9760742 L299.851074,24 L302.548828,24 L302.548828,6.49511719 L299.558105,6.49511719 L299.558105,18.5556641 L290.805664,6.49511719 L288.10791,6.49511719 L288.10791,24 L291.098633,24 Z" id="OLIVERCOOKSON" fill="#FFFFFF"></path>
                </g>
            </g>
        </g>
    </g>
</svg>